<?xml version="1.0" standalone="no"?>
<!DOCTYPE svg PUBLIC "-//W3C//DTD SVG 20010904//EN"
 "http://www.w3.org/TR/2001/REC-SVG-20010904/DTD/svg10.dtd">
<svg version="1.0" xmlns="http://www.w3.org/2000/svg"
 width="396.000000pt" height="396.000000pt" viewBox="0 0 396.000000 396.000000"
 preserveAspectRatio="xMidYMid meet">
<metadata>
Created by potrace 1.15, written by Peter Selinger 2001-2017
</metadata>
<g transform="translate(0.000000,396.000000) scale(0.100000,-0.100000)"
fill="#000000" stroke="none">
<path d="M1720 3950 c-111 -16 -260 -50 -370 -86 -187 -62 -471 -214 -598
-321 l-34 -28 976 3 976 2 0 -120 0 -120 -285 0 -285 0 0 -393 0 -392 285
-285 285 -285 293 293 292 292 113 0 112 0 2 -917 3 -916 61 79 c214 277 351
601 398 943 10 65 16 182 16 281 0 336 -63 607 -209 898 -271 539 -769 919
-1373 1048 -108 23 -151 26 -358 29 -129 2 -264 0 -300 -5z"/>
<path d="M402 3188 c-211 -281 -339 -590 -386 -927 -18 -129 -21 -396 -6 -521
83 -671 496 -1249 1103 -1545 156 -76 299 -125 474 -162 121 -26 142 -27 393
-27 251 0 272 1 393 27 70 15 175 43 235 63 192 63 457 205 600 321 l42 34 0
582 0 582 -290 -290 -290 -290 -317 317 -317 317 -39 -72 c-51 -95 -104 -160
-185 -230 -235 -204 -576 -255 -855 -128 -225 101 -396 303 -458 540 -30 114
-31 310 -1 414 66 233 223 418 443 521 73 35 165 64 172 55 2 -2 1 -56 -1
-119 l-4 -115 -72 -34 c-51 -25 -92 -56 -146 -110 -120 -120 -170 -239 -170
-403 0 -161 52 -290 165 -404 317 -323 847 -173 960 271 13 50 15 165 15 742
l0 683 -694 0 -695 0 -69 -92z m955 -1033 c48 -20 71 -41 95 -89 26 -52 26
-121 -1 -173 -88 -174 -353 -109 -353 87 0 49 26 113 59 142 51 46 135 60 200
33z"/>
<path d="M2958 1853 l-288 -288 -285 285 -285 285 0 -85 0 -85 285 -285 285
-285 290 291 291 290 -3 82 -3 82 -287 -287z"/>
</g>
</svg>
